<svg id="Icon_ionic-ios-arrow-dropright" data-name="Icon ionic-ios-arrow-dropright" xmlns="http://www.w3.org/2000/svg" width="18.087" height="18.087" viewBox="0 0 18.087 18.087">
  <path id="Path_8" data-name="Path 8" d="M14.655,10.233a.787.787,0,0,1,1.152,0L19.832,14.5a.894.894,0,0,1,.025,1.185l-3.966,4.2a.785.785,0,0,1-1.152,0,.893.893,0,0,1,0-1.216l3.371-3.612-3.456-3.612A.883.883,0,0,1,14.655,10.233Z" transform="translate(-7.492 -6.018)" fill="#fff"/>
  <path id="Path_9" data-name="Path 9" d="M3.375,12.419a9.044,9.044,0,1,0,9.044-9.044A9.042,9.042,0,0,0,3.375,12.419Zm1.391,0A7.649,7.649,0,0,1,17.827,7.01,7.649,7.649,0,1,1,7.01,17.827,7.586,7.586,0,0,1,4.766,12.419Z" transform="translate(-3.375 -3.375)" fill="#fff"/>
</svg>
