<svg xmlns="http://www.w3.org/2000/svg" width="19.874" height="11.456" viewBox="0 0 19.874 11.456">
  <path id="Icon_awesome-newspaper" data-name="Icon awesome-newspaper" d="M19.046,4.5H3.036a.778.778,0,0,0-.828.716v.239H.828A.778.778,0,0,0,0,6.171v8.115a1.816,1.816,0,0,0,1.932,1.671H18.218a1.556,1.556,0,0,0,1.656-1.432V5.216A.778.778,0,0,0,19.046,4.5ZM1.932,14.524a.259.259,0,0,1-.276-.239v-7.4h.552v7.4A.259.259,0,0,1,1.932,14.524Zm8.143-.477H4.831a.389.389,0,0,1-.414-.358V13.45a.389.389,0,0,1,.414-.358h5.245a.389.389,0,0,1,.414.358v.239A.389.389,0,0,1,10.075,14.047Zm7.177,0H12.007a.389.389,0,0,1-.414-.358V13.45a.389.389,0,0,1,.414-.358h5.245a.389.389,0,0,1,.414.358v.239A.389.389,0,0,1,17.252,14.047Zm-7.177-2.864H4.831a.389.389,0,0,1-.414-.358v-.239a.389.389,0,0,1,.414-.358h5.245a.389.389,0,0,1,.414.358v.239A.389.389,0,0,1,10.075,11.183Zm7.177,0H12.007a.389.389,0,0,1-.414-.358v-.239a.389.389,0,0,1,.414-.358h5.245a.389.389,0,0,1,.414.358v.239A.389.389,0,0,1,17.252,11.183Zm0-2.864H4.831a.389.389,0,0,1-.414-.358V6.767a.389.389,0,0,1,.414-.358H17.252a.389.389,0,0,1,.414.358V7.961A.389.389,0,0,1,17.252,8.319Z" transform="translate(0 -4.5)"/>
</svg>
